<svg height="32" viewBox="0 0 32 32" width="32" xmlns="http://www.w3.org/2000/svg"><path d="m24.292 15.547c1.968.131 3.729-1.213 4.115-3.145-.475-.735-1.287-1.177-2.161-1.177-2.272-.052-3.491 2.651-1.953 4.323zm-9.177-10.85 5.359-3.104-1.708-.963-7.391 4.281.589.328 1.119.629 2.032-1.176zm6.046-3.39c.089.027.161.1.188.188l2.484 7.593c.047.131-.005.272-.125.344-1.968 1.156-2.916 3.489-2.317 5.693.656 2.391 2.937 3.953 5.401 3.703.135-.011.265.073.307.203l2.563 7.803c.041.131-.011.271-.125.344l-7.859 4.771c-.037.021-.084.036-.131.036-.068.016-.14 0-.203-.041l-2.765-1.797c-.048-.031-.084-.077-.109-.129l-5.396-12.896-8.219 4.875c-.016.011-.037.021-.052.032-.084.036-.183.025-.261-.021l-1.859-1.093c-.136-.073-.188-.245-.115-.381l7.953-15.749c.025-.057.077-.104.135-.131l7.959-4.609c.088-.052.197-.057.292-.005zm-8.322 5.1-1.932-1.089-7.693 15.229 1.396.823 6.631-9.015c.063-.089.167-.136.271-.12.104.011.192.077.235.177l7.228 17.296 1.933 1.251-8.063-24.552zm13.406 10.557c-2.256 0-3.787-2.292-2.923-4.376.86-2.083 3.563-2.619 5.156-1.025.595.593.928 1.396.928 2.235.005 1.749-1.412 3.167-3.161 3.167z"/></svg>